<svg width="288" height="60" viewBox="0 0 288 60" xmlns="http://www.w3.org/2000/svg">
    <g fill="#0072bc" fill-rule="evenodd">
        <path d="M38.913.841c-2.801 0-5.558.609-7.505 1.392C29.46 1.45 26.703.84 23.902.84 11.562.841.402 12.452.402 28.37c0 17.352 14.266 30.79 31.006 30.79 16.739 0 31.005-13.416 31.005-30.79 0-15.917-11.16-27.528-23.5-27.528zM31.408 10.3c2.385 1.413 5.514 5.48 5.514 10.09 0 3.37-2.232 6.022-5.514 6.022-3.283 0-5.515-2.653-5.515-6.023-.021-4.61 3.13-8.676 5.515-10.09zm0 41.27c-12.801 0-23.391-10.241-23.391-23.353 0-11.981 8.708-20.157 15.535-19.852-3.238 3.196-5.208 7.87-5.208 12.394C18.344 28.543 24.56 34 31.408 34c6.848 0 13.063-5.458 13.063-13.242 0-4.523-1.97-9.198-5.208-12.394 6.827-.305 15.535 7.87 15.535 19.852 0 13.133-10.59 23.353-23.39 23.353z"/>
        <g fill-rule="nonzero">
            <path d="M107.073 14.127v6.349h9.737v23.81h6.892v-23.81h9.737v-6.35h-26.366zM220.483 14.127H203.13v6.393h16.892c2.473 0 3.436 1.13 3.436 4v1.066h-14.004c-5.317 0-7.965 2.653-7.965 8.632v1.414c0 6.153 2.735 8.61 8.271 8.61h20.525V24.433c.021-7.566-2.517-10.306-9.803-10.306zm-10 23.7c-1.05 0-2.21-.521-2.21-3.109 0-2.587 1.16-3.044 2.21-3.044h12.997v6.154h-12.997zM277.702 14.127H260.35v6.393h16.892c2.473 0 3.436 1.13 3.436 4v1.066h-14.004c-5.317 0-7.965 2.653-7.965 8.632v1.414c0 6.153 2.735 8.61 8.271 8.61h20.525V24.433c0-7.566-2.517-10.306-9.803-10.306zm-10 23.7c-1.05 0-2.21-.521-2.21-3.109 0-2.587 1.16-3.044 2.21-3.044H280.7v6.154h-12.998zM135.606 14.127v6.349h9.737v23.81h6.892v-23.81h9.737v-6.35h-26.366zM231.686 14.127v6.349h9.737v23.81h6.893v-23.81h9.737v-6.35h-26.367zM198.842 33.718v-9.024c0-7.893-3.085-10.567-10.043-10.567h-18.446v30.137h18.774c7.374 0 9.715-3.631 9.715-10.546zm-7.045.13c0 2.893-.985 4.002-3.458 4.002h-11.093V20.54h11.093c2.473 0 3.458 1.131 3.458 4.001v9.307zM97.357 37.089c-.153-.283-9.365-18.113-10.48-19.853-1.292-2.022-2.889-3.435-5.909-3.435-2.822 0-6.148 1.239-6.148 7.958v22.549h6.805v-18.81a90.19 90.19 0 0 0-.11-3.739c-.021-.326 0-.652.175-.74.197-.108.394.066.526.327.13.26 8.665 17.025 10.48 19.852 1.292 2.022 2.889 3.436 5.909 3.436 2.8 0 6.148-1.24 6.148-7.959V14.127H97.97v18.808c0 1.349.088 3.349.11 3.762.021.326 0 .652-.176.74-.218.086-.415-.088-.547-.348z"/>
        </g>
    </g>
</svg>
