<?xml version="1.0" encoding="UTF-8"?>
<svg width="154px" height="65px" viewBox="0 0 154 65" version="1.1" xmlns="http://www.w3.org/2000/svg" xmlns:xlink="http://www.w3.org/1999/xlink">
    <title>Group</title>
    <g id="Page-1" stroke="none" stroke-width="1" fill="none" fill-rule="evenodd">
        <g id="Group" transform="translate(-0.0005, 2)" fill-rule="nonzero">
            <path d="M33.4343505,0 C43.8315683,5.8148662 51.7630021,13.2516274 57.2165971,22.3224026 C62.6661503,31.3864554 65.4256987,41.7245045 65.5089924,53.3322999 C56.2859138,59.117577 45.477177,62 33.0891896,62 C20.704819,62 10.0058063,59.1196105 1,53.3342532 C0.958859308,41.7042571 3.60542495,31.4788405 8.95951037,22.6635281 C14.3278949,13.8246727 22.4920241,6.27611802 33.4343505,0 Z" id="Triangle-Copy-Copy-2" stroke="#1976d2" stroke-width="2" fill="#1976d2"></path>
            <path d="M41.0080201,17.6615613 C42.5466713,17.6615613 43.7939945,18.9088845 43.7939945,20.4475357 C43.7939945,21.9861868 42.5466713,23.2335101 41.0080201,23.2335101 C39.4693689,23.2335101 38.2220457,21.9861868 38.2220457,20.4475357 C38.2220457,18.9088845 39.4693689,17.6615613 41.0080201,17.6615613 Z M41.0080201,19.1064611 C40.267365,19.1064611 39.6669455,19.7068806 39.6669455,20.4475357 C39.6669455,21.1881908 40.267365,21.7886103 41.0080201,21.7886103 C41.7486752,21.7886103 42.3490947,21.1881908 42.3490947,20.4475357 C42.3490947,19.7068806 41.7486752,19.1064611 41.0080201,19.1064611 Z" id="Oval-Copy-6" fill="#FFFFFF"></path>
            <path d="M49.4870727,22.5067341 C51.0257238,22.5067341 52.2730471,23.7540574 52.2730471,25.2927085 C52.2730471,26.8313597 51.0257238,28.0786829 49.4870727,28.0786829 C47.9484215,28.0786829 46.7010983,26.8313597 46.7010983,25.2927085 C46.7010983,23.7540574 47.9484215,22.5067341 49.4870727,22.5067341 Z M49.4870727,23.9516339 C48.7464176,23.9516339 48.145998,24.5520535 48.145998,25.2927085 C48.145998,26.0333636 48.7464176,26.6337832 49.4870727,26.6337832 C50.2277277,26.6337832 50.8281473,26.0333636 50.8281473,25.2927085 C50.8281473,24.5520535 50.2277277,23.9516339 49.4870727,23.9516339 Z" id="Oval-Copy-Copy-2" fill="#FFFFFF"></path>
            <path d="M50.6983659,31.4703039 C52.237017,31.4703039 53.4843403,32.7176272 53.4843403,34.2562784 C53.4843403,35.7949294 52.237017,37.0422528 50.6983659,37.0422528 C49.1597147,37.0422528 47.9123915,35.7949294 47.9123915,34.2562784 C47.9123915,32.7176272 49.1597147,31.4703039 50.6983659,31.4703039 Z M50.6983659,32.9152037 C49.9577108,32.9152037 49.3572912,33.5156232 49.3572912,34.2562784 C49.3572912,34.9969334 49.9577108,35.597353 50.6983659,35.597353 C51.4390209,35.597353 52.0394405,34.9969334 52.0394405,34.2562784 C52.0394405,33.5156232 51.4390209,32.9152037 50.6983659,32.9152037 Z" id="Oval-Copy-2-Copy-2" fill="#FFFFFF"></path>
            <path d="M49.4870727,40.6761324 C51.0257238,40.6761324 52.2730471,41.9234556 52.2730471,43.4621068 C52.2730471,45.0007579 51.0257238,46.2480811 49.4870727,46.2480811 C47.9484215,46.2480811 46.7010983,45.0007579 46.7010983,43.4621068 C46.7010983,41.9234556 47.9484215,40.6761324 49.4870727,40.6761324 Z M49.4870727,42.1210321 C48.7464176,42.1210321 48.145998,42.7214516 48.145998,43.4621068 C48.145998,44.2027618 48.7464176,44.8031814 49.4870727,44.8031814 C50.2277277,44.8031814 50.8281473,44.2027618 50.8281473,43.4621068 C50.8281473,42.7214516 50.2277277,42.1210321 49.4870727,42.1210321 Z" id="Oval-Copy-3-Copy-2" fill="#FFFFFF"></path>
            <path d="M41.0080201,45.5213052 C42.5466713,45.5213052 43.7939945,46.7686284 43.7939945,48.3072796 C43.7939945,49.8459308 42.5466713,51.093254 41.0080201,51.093254 C39.4693689,51.093254 38.2220457,49.8459308 38.2220457,48.3072796 C38.2220457,46.7686284 39.4693689,45.5213052 41.0080201,45.5213052 Z M41.0080201,46.966205 C40.267365,46.966205 39.6669455,47.5666246 39.6669455,48.3072796 C39.6669455,49.0479347 40.267365,49.6483542 41.0080201,49.6483542 C41.7486752,49.6483542 42.3490947,49.0479347 42.3490947,48.3072796 C42.3490947,47.5666246 41.7486752,46.966205 41.0080201,46.966205 Z" id="Oval-Copy-4-Copy-2" fill="#FFFFFF"></path>
            <path d="M39.2785472,22.4125143 C39.4643791,22.0594337 39.901254,21.9238518 40.2543347,22.1096837 C40.6074153,22.2955156 40.7429972,22.7323905 40.5571653,23.0854712 L38.3377217,27.302414 C38.0878668,27.7771385 37.595565,28.0743569 37.0591036,28.0743569 L33.3768729,28.0743569 C32.9778748,28.0743569 32.654423,27.750905 32.654423,27.351907 C32.654423,26.9529089 32.9778748,26.6294571 33.3768729,26.6294571 L37.0591036,26.6294571 L39.2785472,22.4125143 Z" id="Path-Copy-7" fill="#FFFFFF"></path>
            <path d="M46.9433569,24.691388 C47.342355,24.691388 47.6658067,25.0148398 47.6658067,25.4138378 C47.6658067,25.8128359 47.342355,26.1362877 46.9433569,26.1362877 L43.1981829,26.1362877 C42.9338066,26.1362877 42.6905446,26.2806961 42.5639474,26.512791 L40.2729399,30.7129714 C40.0197456,31.1771611 39.5332215,31.4659779 39.0044688,31.4659779 L33.3768729,31.4659779 C32.9778748,31.4659779 32.654423,31.1425261 32.654423,30.743528 C32.654423,30.3445299 32.9778748,30.0210781 33.3768729,30.0210781 L39.0044688,30.0210781 L41.2954763,25.8208976 C41.6752678,25.1246131 42.4050539,24.691388 43.1981829,24.691388 L46.9433569,24.691388 Z" id="Path-Copy-Copy-4" fill="#FFFFFF"></path>
            <path d="M39.2785472,41.0666386 C39.4643791,40.713558 39.901254,40.5779761 40.2543347,40.763808 C40.6074153,40.9496399 40.7429972,41.3865149 40.5571653,41.7395955 L38.3377217,45.9565383 C38.0878668,46.4312627 37.595565,46.7284812 37.0591036,46.7284812 L33.3768729,46.7284812 C32.9778748,46.7284812 32.654423,46.4050293 32.654423,46.0060312 C32.654423,45.6070332 32.9778748,45.2835814 33.3768729,45.2835814 L37.0591036,45.2835814 L39.2785472,41.0666386 Z" id="Path-Copy-3-Copy-2" fill="#FFFFFF" transform="translate(36.6474, 43.7045) scale(-1, 1) rotate(-180) translate(-36.6474, -43.7045)"></path>
            <path d="M46.9433569,37.2886565 C47.342355,37.2886565 47.6658067,37.6121084 47.6658067,38.0111064 C47.6658067,38.4101045 47.342355,38.7335563 46.9433569,38.7335563 L43.1981829,38.7335563 C42.9338066,38.7335563 42.6905446,38.8779647 42.5639474,39.1100595 L40.2729399,43.31024 C40.0197456,43.7744296 39.5332215,44.0632465 39.0044688,44.0632465 L33.3768729,44.0632465 C32.9778748,44.0632465 32.654423,43.7397946 32.654423,43.3407965 C32.654423,42.9417985 32.9778748,42.6183467 33.3768729,42.6183467 L39.0044688,42.6183467 L41.2954763,38.4181662 C41.6752678,37.7218816 42.4050539,37.2886565 43.1981829,37.2886565 L46.9433569,37.2886565 Z" id="Path-Copy-2-Copy-4" fill="#FFFFFF" transform="translate(40.1601, 40.676) scale(-1, 1) rotate(-180) translate(-40.1601, -40.676)"></path>
            <path d="M48.3969087,33.5338284 C48.7959068,33.5338284 49.1193586,33.8572803 49.1193586,34.2562784 C49.1193586,34.6552763 48.7959068,34.9787282 48.3969087,34.9787282 L33.3768729,34.9787282 C32.9778748,34.9787282 32.654423,34.6552763 32.654423,34.2562784 C32.654423,33.8572803 32.9778748,33.5338284 33.3768729,33.5338284 L48.3969087,33.5338284 Z" id="Line-Copy-2" fill="#FFFFFF"></path>
            <path d="M25.866855,27.1096484 L25.866855,28.5228561 L15.3875908,28.5230778 L24.8432348,35.6136798 L25.866855,35.6133341 L25.866855,37.0265418 L24.3689269,37.0268321 L14.4472964,29.5884621 L14.4472964,41.589217 L21.2706711,36.4748194 L22.4522799,37.3580397 L15.3875908,42.6546011 L25.866855,42.6545456 L25.866855,44.0677534 L13.0271468,44.0677534 L13.0271468,27.1099254 L25.866855,27.1096484 Z M25.866855,25.6557545 L15.9342506,25.6560965 L15.9342506,24.2025446 L25.866855,24.2025446 L25.866855,25.6557545 Z" id="Shape-Copy-2" fill="#FFFFFF"></path>
            <path d="M32.3133756,21.4122064 C32.8176662,21.4122064 33.2265043,21.8210445 33.2265043,22.3253351 L33.2265043,24.0298421 C33.2265043,24.5341327 32.8176662,24.9429708 32.3133756,24.9429708 C31.809085,24.9429708 31.4002469,24.5341327 31.4002469,24.0298421 L31.4002469,22.3253351 C31.4002469,21.8210445 31.809085,21.4122064 32.3133756,21.4122064 Z" id="Path-Copy-6" fill="#FFFFFF" transform="translate(32.3134, 23.1776) rotate(-90) translate(-32.3134, -23.1776)"></path>
            <path d="M32.3518756,43.8255249 C32.8561662,43.8255249 33.2650044,44.234363 33.2650044,44.7386536 L33.2650044,46.4431606 C33.2650044,46.9474512 32.8561662,47.3562894 32.3518756,47.3562894 C31.8475851,47.3562894 31.4387469,46.9474512 31.4387469,46.4431606 L31.4387469,44.7386536 C31.4387469,44.234363 31.8475851,43.8255249 32.3518756,43.8255249 Z" id="Path-Copy-2-Copy-3" fill="#FFFFFF" transform="translate(32.3519, 45.5909) rotate(-90) translate(-32.3519, -45.5909)"></path>
            <path d="M15.6919959,34.1351249 C15.6919959,33.5999593 16.1006279,33.1660903 16.6046912,33.1660903 L40.943234,33.1660903 C41.4472852,33.1660903 41.8559293,33.5999593 41.8559293,34.1351249 C41.8559293,34.6702904 41.4472852,35.1041594 40.943234,35.1041594 L16.6046912,35.1041594 C16.1006279,35.1041594 15.6919959,34.6702904 15.6919959,34.1351249 Z" id="Path-Copy-Copy-3" fill="#FFFFFF" transform="translate(28.774, 34.1351) rotate(-90) translate(-28.774, -34.1351)"></path>
            <g id="Smart-Auth" transform="translate(75.0005, -1)" fill="#1976d2">
                <path d="M9.44726562,21.0878906 C10.4407552,21.0878906 11.2473958,20.9785156 11.8671875,20.7597656 C13.0429688,20.3404948 13.6308594,19.5611979 13.6308594,18.421875 C13.6308594,17.7565104 13.3391927,17.2415365 12.7558594,16.8769531 C12.172526,16.5214844 11.2565104,16.2070312 10.0078125,15.9335937 L7.875,15.4550781 C5.77864583,14.9811198 4.32942708,14.4661458 3.52734375,13.9101562 C2.16927083,12.9804688 1.49023438,11.5266927 1.49023438,9.54882812 C1.49023438,7.74414062 2.14648438,6.24479167 3.45898438,5.05078125 C4.77148438,3.85677083 6.69921875,3.25976562 9.2421875,3.25976562 C11.3658854,3.25976562 13.1774089,3.82259115 14.6767578,4.94824219 C16.1761068,6.07389323 16.9622396,7.70768229 17.0351562,9.84960938 L12.9882812,9.84960938 C12.9153646,8.63736979 12.3867188,7.77604167 11.4023438,7.265625 C10.7460938,6.92838542 9.93033854,6.75976562 8.95507812,6.75976562 C7.87044271,6.75976562 7.00455729,6.97851562 6.35742188,7.41601562 C5.71028646,7.85351562 5.38671875,8.46419271 5.38671875,9.24804688 C5.38671875,9.96809896 5.70572917,10.5058594 6.34375,10.8613281 C6.75390625,11.0983073 7.62890625,11.3763021 8.96875,11.6953125 L12.4414062,12.5292969 C13.9635417,12.8938802 15.1119792,13.3815104 15.8867188,13.9921875 C17.0898438,14.9401042 17.6914062,16.311849 17.6914062,18.1074219 C17.6914062,19.9485677 16.9873047,21.4775391 15.5791016,22.6943359 C14.1708984,23.9111328 12.1816406,24.5195312 9.61132812,24.5195312 C6.98632812,24.5195312 4.921875,23.9202474 3.41796875,22.7216797 C1.9140625,21.523112 1.16210938,19.875651 1.16210938,17.7792969 L5.18164062,17.7792969 C5.30924479,18.6998698 5.55989583,19.3880208 5.93359375,19.84375 C6.6171875,20.6731771 7.78841146,21.0878906 9.44726562,21.0878906 Z" id="Path"></path>
                <path d="M28.8613281,13.1992188 C28.5332031,12.4791667 27.890625,12.1191406 26.9335938,12.1191406 C25.8216146,12.1191406 25.0742188,12.4791667 24.6914062,13.1992188 C24.4817708,13.609375 24.3769531,14.2200521 24.3769531,15.03125 L24.3769531,24 L20.4257812,24 L20.4257812,9.125 L24.2128906,9.125 L24.2128906,11.2988281 C24.6959635,10.5240885 25.1516927,9.97265625 25.5800781,9.64453125 C26.3365885,9.06119792 27.3164062,8.76953125 28.5195312,8.76953125 C29.6588542,8.76953125 30.5794271,9.02018229 31.28125,9.52148438 C31.8463542,9.98632812 32.2747396,10.5833333 32.5664062,11.3125 C33.0768229,10.4375 33.7102865,9.79492188 34.4667969,9.38476562 C35.2688802,8.97460938 36.1621094,8.76953125 37.1464844,8.76953125 C37.8027344,8.76953125 38.4498698,8.89713542 39.0878906,9.15234375 C39.7259115,9.40755208 40.3046875,9.85416667 40.8242188,10.4921875 C41.2434896,11.0117188 41.5260417,11.6497396 41.671875,12.40625 C41.7630208,12.9075521 41.8085938,13.641276 41.8085938,14.6074219 L41.78125,24 L37.7890625,24 L37.7890625,14.5117188 C37.7890625,13.9466146 37.6979167,13.4817708 37.515625,13.1171875 C37.1692708,12.4244792 36.53125,12.078125 35.6015625,12.078125 C34.5260417,12.078125 33.7832031,12.5247396 33.3730469,13.4179688 C33.1634115,13.8919271 33.0585938,14.4615885 33.0585938,15.1269531 L33.0585938,24 L29.1347656,24 L29.1347656,15.1269531 C29.1347656,14.2428385 29.0436198,13.6002604 28.8613281,13.1992188 Z" id="Path"></path>
                <path d="M45.9511719,10.7109375 C46.9811198,9.3984375 48.749349,8.7421875 51.2558594,8.7421875 C52.8873698,8.7421875 54.3365885,9.06575521 55.6035156,9.71289062 C56.8704427,10.360026 57.5039062,11.5813802 57.5039062,13.3769531 L57.5039062,20.2128906 C57.5039062,20.686849 57.5130208,21.2610677 57.53125,21.9355469 C57.5585938,22.4459635 57.6360677,22.7923177 57.7636719,22.9746094 C57.891276,23.156901 58.0826823,23.3072917 58.3378906,23.4257812 L58.3378906,24 L54.0996094,24 C53.9811198,23.6992188 53.8990885,23.4166667 53.8535156,23.1523438 C53.8079427,22.8880208 53.7714844,22.5872396 53.7441406,22.25 C53.2063802,22.8333333 52.5865885,23.3300781 51.8847656,23.7402344 C51.046224,24.2233073 50.0983073,24.4648438 49.0410156,24.4648438 C47.6920573,24.4648438 46.5777995,24.0797526 45.6982422,23.3095703 C44.8186849,22.539388 44.3789062,21.4479167 44.3789062,20.0351562 C44.3789062,18.203125 45.0852865,16.8769531 46.4980469,16.0566406 C47.2727865,15.610026 48.4121094,15.2910156 49.9160156,15.0996094 L51.2421875,14.9355469 C51.9622396,14.844401 52.4772135,14.7304688 52.7871094,14.59375 C53.343099,14.3567708 53.6210938,13.9876302 53.6210938,13.4863281 C53.6210938,12.875651 53.4091797,12.4541016 52.9853516,12.2216797 C52.5615234,11.9892578 51.9394531,11.8730469 51.1191406,11.8730469 C50.1985677,11.8730469 49.546875,12.1009115 49.1640625,12.5566406 C48.890625,12.8938802 48.7083333,13.3496094 48.6171875,13.9238281 L44.8574219,13.9238281 C44.9394531,12.6204427 45.3040365,11.5494792 45.9511719,10.7109375 Z M48.8496094,21.1835938 C49.2141927,21.484375 49.6608073,21.6347656 50.1894531,21.6347656 C51.0279948,21.6347656 51.8004557,21.3886719 52.5068359,20.8964844 C53.2132161,20.4042969 53.5800781,19.5065104 53.6074219,18.203125 L53.6074219,16.7539062 C53.3613281,16.9088542 53.1129557,17.0341797 52.8623047,17.1298828 C52.6116536,17.2255859 52.2675781,17.3144531 51.8300781,17.3964844 L50.9550781,17.5605469 C50.1347656,17.7063802 49.546875,17.8841146 49.1914062,18.09375 C48.5898438,18.4492188 48.2890625,19.000651 48.2890625,19.7480469 C48.2890625,20.4134115 48.4759115,20.8919271 48.8496094,21.1835938 Z" id="Shape"></path>
                <path d="M68.4550781,12.6933594 C66.8873698,12.6933594 65.8346354,13.203776 65.296875,14.2246094 C64.9960938,14.7988281 64.8457031,15.6829427 64.8457031,16.8769531 L64.8457031,24 L60.921875,24 L60.921875,9.09765625 L64.640625,9.09765625 L64.640625,11.6953125 C65.2421875,10.7018229 65.766276,10.0227865 66.2128906,9.65820312 C66.9420573,9.04752604 67.889974,8.7421875 69.0566406,8.7421875 C69.1295573,8.7421875 69.1910807,8.74446615 69.2412109,8.74902344 C69.2913411,8.75358073 69.4029948,8.76041667 69.5761719,8.76953125 L69.5761719,12.7617188 C69.3300781,12.734375 69.1113281,12.7161458 68.9199219,12.7070312 C68.7285156,12.6979167 68.5735677,12.6933594 68.4550781,12.6933594 Z" id="Path"></path>
                <path d="M78.6816406,21.2246094 L78.6816406,24.1367188 L76.8359375,24.2050781 C74.9947917,24.2688802 73.7369792,23.9498698 73.0625,23.2480469 C72.625,22.8014323 72.40625,22.1132812 72.40625,21.1835938 L72.40625,12.0097656 L70.328125,12.0097656 L70.328125,9.234375 L72.40625,9.234375 L72.40625,5.078125 L76.2617188,5.078125 L76.2617188,9.234375 L78.6816406,9.234375 L78.6816406,12.0097656 L76.2617188,12.0097656 L76.2617188,19.8847656 C76.2617188,20.4954427 76.3391927,20.8759766 76.4941406,21.0263672 C76.6490885,21.1767578 77.1230469,21.2519531 77.9160156,21.2519531 C78.0345052,21.2519531 78.1598307,21.2496745 78.2919922,21.2451172 C78.4241536,21.2405599 78.5540365,21.233724 78.6816406,21.2246094 Z" id="Path"></path>
                <path d="M13.9316406,51.8574219 L6.5078125,51.8574219 L5.11328125,56 L0.7109375,56 L7.90234375,35.8476562 L12.6601562,35.8476562 L19.796875,56 L15.2304688,56 L13.9316406,51.8574219 Z M12.7558594,48.3847656 L10.2402344,40.4550781 L7.64257812,48.3847656 L12.7558594,48.3847656 Z" id="Shape"></path>
                <path d="M31.5957031,53.8945312 C31.5592448,53.9401042 31.468099,54.0768229 31.3222656,54.3046875 C31.1764323,54.5325521 31.0032552,54.7330729 30.8027344,54.90625 C30.1920573,55.453125 29.601888,55.8268229 29.0322266,56.0273438 C28.4625651,56.2278646 27.7949219,56.328125 27.0292969,56.328125 C24.8235677,56.328125 23.3378906,55.5351562 22.5722656,53.9492188 C22.1438802,53.0742188 21.9296875,51.7845052 21.9296875,50.0800781 L21.9296875,41.0976562 L25.921875,41.0976562 L25.921875,50.0800781 C25.921875,50.9277344 26.0221354,51.5657552 26.2226562,51.9941406 C26.578125,52.750651 27.2753906,53.1289062 28.3144531,53.1289062 C29.6451823,53.1289062 30.5566406,52.5911458 31.0488281,51.515625 C31.3040365,50.9322917 31.4316406,50.1621094 31.4316406,49.2050781 L31.4316406,41.0976562 L35.3828125,41.0976562 L35.3828125,56 L31.5957031,56 L31.5957031,53.8945312 Z" id="Path"></path>
                <path d="M45.9648438,53.2246094 L45.9648438,56.1367188 L44.1191406,56.2050781 C42.2779948,56.2688802 41.0201823,55.9498698 40.3457031,55.2480469 C39.9082031,54.8014323 39.6894531,54.1132812 39.6894531,53.1835938 L39.6894531,44.0097656 L37.6113281,44.0097656 L37.6113281,41.234375 L39.6894531,41.234375 L39.6894531,37.078125 L43.5449219,37.078125 L43.5449219,41.234375 L45.9648438,41.234375 L45.9648438,44.0097656 L43.5449219,44.0097656 L43.5449219,51.8847656 C43.5449219,52.4954427 43.6223958,52.8759766 43.7773438,53.0263672 C43.9322917,53.1767578 44.40625,53.2519531 45.1992188,53.2519531 C45.3177083,53.2519531 45.4430339,53.2496745 45.5751953,53.2451172 C45.7073568,53.2405599 45.8372396,53.233724 45.9648438,53.2246094 Z" id="Path"></path>
                <path d="M61.9335938,47.25 L61.9335938,56 L57.9550781,56 L57.9550781,46.9355469 C57.9550781,46.1334635 57.8183594,45.4863281 57.5449219,44.9941406 C57.1894531,44.3014323 56.514974,43.9550781 55.5214844,43.9550781 C54.4915365,43.9550781 53.7099609,44.2991536 53.1767578,44.9873047 C52.6435547,45.6754557 52.3769531,46.6575521 52.3769531,47.9335938 L52.3769531,56 L48.4941406,56 L48.4941406,35.9160156 L52.3769531,35.9160156 L52.3769531,43.0390625 C52.9420573,42.1731771 53.5960286,41.5693359 54.3388672,41.2275391 C55.0817057,40.8857422 55.8632812,40.7148438 56.6835938,40.7148438 C57.6041667,40.7148438 58.4404297,40.874349 59.1923828,41.1933594 C59.9443359,41.5123698 60.561849,42 61.0449219,42.65625 C61.4550781,43.2122396 61.7057292,43.7841797 61.796875,44.3720703 C61.8880208,44.9599609 61.9335938,45.9192708 61.9335938,47.25 Z" id="Path"></path>
            </g>
        </g>
    </g>
</svg>